<mxfile host="app.diagrams.net" modified="2024-02-02T18:31:10.020Z" agent="Mozilla/5.0 (Windows NT 10.0; Win64; x64; rv:122.0) Gecko/20100101 Firefox/122.0" etag="LeGVwoS3OWtrL2S__7Zt" version="23.1.1" type="device">
  <diagram name="Page-1" id="3LR8V53vhSqwHMb5I33U">
    <mxGraphModel dx="683" dy="372" grid="0" gridSize="10" guides="1" tooltips="1" connect="1" arrows="1" fold="1" page="1" pageScale="1" pageWidth="850" pageHeight="1100" math="0" shadow="0">
      <root>
        <mxCell id="0" />
        <mxCell id="1" parent="0" />
        <mxCell id="AJbrOTF5VmKrxKlWtQ_G-77" value="" style="rounded=1;whiteSpace=wrap;html=1;" vertex="1" parent="1">
          <mxGeometry x="140" y="289.5" width="229" height="237.5" as="geometry" />
        </mxCell>
        <mxCell id="AJbrOTF5VmKrxKlWtQ_G-2" value="" style="shape=hexagon;perimeter=hexagonPerimeter2;whiteSpace=wrap;html=1;fixedSize=1;fillColor=#76FF0D;" vertex="1" parent="1">
          <mxGeometry x="400" y="290" width="80" height="70" as="geometry" />
        </mxCell>
        <mxCell id="AJbrOTF5VmKrxKlWtQ_G-3" value="" style="shape=hexagon;perimeter=hexagonPerimeter2;whiteSpace=wrap;html=1;fixedSize=1;fillColor=#292929;" vertex="1" parent="1">
          <mxGeometry x="460" y="325" width="80" height="70" as="geometry" />
        </mxCell>
        <mxCell id="AJbrOTF5VmKrxKlWtQ_G-4" value="" style="shape=hexagon;perimeter=hexagonPerimeter2;whiteSpace=wrap;html=1;fixedSize=1;fillColor=#FFB570;" vertex="1" parent="1">
          <mxGeometry x="400" y="360" width="80" height="70" as="geometry" />
        </mxCell>
        <mxCell id="AJbrOTF5VmKrxKlWtQ_G-5" value="" style="shape=hexagon;perimeter=hexagonPerimeter2;whiteSpace=wrap;html=1;fixedSize=1;fillColor=#B8B8B8;" vertex="1" parent="1">
          <mxGeometry x="460" y="395" width="80" height="70" as="geometry" />
        </mxCell>
        <mxCell id="AJbrOTF5VmKrxKlWtQ_G-6" value="" style="shape=hexagon;perimeter=hexagonPerimeter2;whiteSpace=wrap;html=1;fixedSize=1;fillColor=#0C9631;" vertex="1" parent="1">
          <mxGeometry x="520" y="360" width="80" height="70" as="geometry" />
        </mxCell>
        <mxCell id="AJbrOTF5VmKrxKlWtQ_G-7" value="" style="shape=hexagon;perimeter=hexagonPerimeter2;whiteSpace=wrap;html=1;fixedSize=1;fillColor=#FFB570;" vertex="1" parent="1">
          <mxGeometry x="520" y="290" width="80" height="70" as="geometry" />
        </mxCell>
        <mxCell id="AJbrOTF5VmKrxKlWtQ_G-8" value="" style="shape=hexagon;perimeter=hexagonPerimeter2;whiteSpace=wrap;html=1;fixedSize=1;fillColor=#7D5F18;" vertex="1" parent="1">
          <mxGeometry x="460" y="255" width="80" height="70" as="geometry" />
        </mxCell>
        <mxCell id="AJbrOTF5VmKrxKlWtQ_G-10" value="12" style="ellipse;whiteSpace=wrap;html=1;aspect=fixed;" vertex="1" parent="1">
          <mxGeometry x="486.5" y="276.5" width="27" height="27" as="geometry" />
        </mxCell>
        <mxCell id="AJbrOTF5VmKrxKlWtQ_G-11" value="6" style="ellipse;whiteSpace=wrap;html=1;aspect=fixed;" vertex="1" parent="1">
          <mxGeometry x="546.5" y="311.5" width="27" height="27" as="geometry" />
        </mxCell>
        <mxCell id="AJbrOTF5VmKrxKlWtQ_G-12" value="5" style="ellipse;whiteSpace=wrap;html=1;aspect=fixed;" vertex="1" parent="1">
          <mxGeometry x="426.5" y="311.5" width="27" height="27" as="geometry" />
        </mxCell>
        <mxCell id="AJbrOTF5VmKrxKlWtQ_G-13" value="8" style="ellipse;whiteSpace=wrap;html=1;aspect=fixed;" vertex="1" parent="1">
          <mxGeometry x="546.5" y="381.5" width="27" height="27" as="geometry" />
        </mxCell>
        <mxCell id="AJbrOTF5VmKrxKlWtQ_G-14" value="10" style="ellipse;whiteSpace=wrap;html=1;aspect=fixed;" vertex="1" parent="1">
          <mxGeometry x="426.5" y="381.5" width="27" height="27" as="geometry" />
        </mxCell>
        <mxCell id="AJbrOTF5VmKrxKlWtQ_G-15" value="9" style="ellipse;whiteSpace=wrap;html=1;aspect=fixed;" vertex="1" parent="1">
          <mxGeometry x="486.5" y="416.5" width="27" height="27" as="geometry" />
        </mxCell>
        <mxCell id="AJbrOTF5VmKrxKlWtQ_G-16" value="2" style="ellipse;whiteSpace=wrap;html=1;aspect=fixed;" vertex="1" parent="1">
          <mxGeometry x="486.5" y="346.5" width="27" height="27" as="geometry" />
        </mxCell>
        <mxCell id="AJbrOTF5VmKrxKlWtQ_G-22" value="" style="rounded=1;whiteSpace=wrap;html=1;" vertex="1" parent="1">
          <mxGeometry x="664" y="179.5" width="143" height="168.5" as="geometry" />
        </mxCell>
        <mxCell id="AJbrOTF5VmKrxKlWtQ_G-23" value="" style="whiteSpace=wrap;html=1;aspect=fixed;fillColor=#FFB570;" vertex="1" parent="1">
          <mxGeometry x="677" y="192" width="19" height="19" as="geometry" />
        </mxCell>
        <mxCell id="AJbrOTF5VmKrxKlWtQ_G-24" value="" style="whiteSpace=wrap;html=1;aspect=fixed;fillColor=#76FF0D;" vertex="1" parent="1">
          <mxGeometry x="677" y="216" width="19" height="19" as="geometry" />
        </mxCell>
        <mxCell id="AJbrOTF5VmKrxKlWtQ_G-25" value="" style="whiteSpace=wrap;html=1;aspect=fixed;fillColor=#B8B8B8;" vertex="1" parent="1">
          <mxGeometry x="677" y="240" width="19" height="19" as="geometry" />
        </mxCell>
        <mxCell id="AJbrOTF5VmKrxKlWtQ_G-26" value="" style="whiteSpace=wrap;html=1;aspect=fixed;fillColor=#0C9631;" vertex="1" parent="1">
          <mxGeometry x="677" y="264" width="19" height="19" as="geometry" />
        </mxCell>
        <mxCell id="AJbrOTF5VmKrxKlWtQ_G-27" value="" style="whiteSpace=wrap;html=1;aspect=fixed;fillColor=#292929;" vertex="1" parent="1">
          <mxGeometry x="677" y="290" width="19" height="19" as="geometry" />
        </mxCell>
        <mxCell id="AJbrOTF5VmKrxKlWtQ_G-28" value="" style="whiteSpace=wrap;html=1;aspect=fixed;fillColor=#7D5F18;" vertex="1" parent="1">
          <mxGeometry x="677" y="315.5" width="19" height="19" as="geometry" />
        </mxCell>
        <mxCell id="AJbrOTF5VmKrxKlWtQ_G-29" value="clay&amp;nbsp; (FFB570)" style="text;html=1;strokeColor=none;fillColor=none;align=center;verticalAlign=middle;whiteSpace=wrap;rounded=0;" vertex="1" parent="1">
          <mxGeometry x="700" y="191.5" width="102" height="20" as="geometry" />
        </mxCell>
        <mxCell id="AJbrOTF5VmKrxKlWtQ_G-30" value="trees (76FF0D)" style="text;html=1;strokeColor=none;fillColor=none;align=center;verticalAlign=middle;whiteSpace=wrap;rounded=0;" vertex="1" parent="1">
          <mxGeometry x="700" y="215.5" width="102" height="20" as="geometry" />
        </mxCell>
        <mxCell id="AJbrOTF5VmKrxKlWtQ_G-31" value="ore (B8B8B8)" style="text;html=1;strokeColor=none;fillColor=none;align=center;verticalAlign=middle;whiteSpace=wrap;rounded=0;" vertex="1" parent="1">
          <mxGeometry x="700" y="239.5" width="102" height="20" as="geometry" />
        </mxCell>
        <mxCell id="AJbrOTF5VmKrxKlWtQ_G-32" value="grass (0C9631)" style="text;html=1;strokeColor=none;fillColor=none;align=center;verticalAlign=middle;whiteSpace=wrap;rounded=0;" vertex="1" parent="1">
          <mxGeometry x="700" y="263.5" width="102" height="20" as="geometry" />
        </mxCell>
        <mxCell id="AJbrOTF5VmKrxKlWtQ_G-33" value="desert (292929)" style="text;html=1;strokeColor=none;fillColor=none;align=center;verticalAlign=middle;whiteSpace=wrap;rounded=0;" vertex="1" parent="1">
          <mxGeometry x="700" y="289.5" width="102" height="20" as="geometry" />
        </mxCell>
        <mxCell id="AJbrOTF5VmKrxKlWtQ_G-34" value="wheat (7D5F18)" style="text;html=1;strokeColor=none;fillColor=none;align=center;verticalAlign=middle;whiteSpace=wrap;rounded=0;" vertex="1" parent="1">
          <mxGeometry x="700" y="315.5" width="102" height="20" as="geometry" />
        </mxCell>
        <mxCell id="AJbrOTF5VmKrxKlWtQ_G-36" value="" style="rounded=1;whiteSpace=wrap;html=1;" vertex="1" parent="1">
          <mxGeometry x="664" y="355" width="143" height="91" as="geometry" />
        </mxCell>
        <mxCell id="AJbrOTF5VmKrxKlWtQ_G-37" value="" style="whiteSpace=wrap;html=1;aspect=fixed;fillColor=#FF0000;" vertex="1" parent="1">
          <mxGeometry x="513.5" y="386" width="17" height="17" as="geometry" />
        </mxCell>
        <mxCell id="AJbrOTF5VmKrxKlWtQ_G-38" value="" style="ellipse;whiteSpace=wrap;html=1;aspect=fixed;fillColor=#FF0000;" vertex="1" parent="1">
          <mxGeometry x="533.5" y="353" width="13" height="13" as="geometry" />
        </mxCell>
        <mxCell id="AJbrOTF5VmKrxKlWtQ_G-39" value="" style="endArrow=none;html=1;rounded=1;strokeColor=#FF0000;exitX=0.059;exitY=0.378;exitDx=0;exitDy=0;exitPerimeter=0;entryX=0.21;entryY=0.087;entryDx=0;entryDy=0;entryPerimeter=0;curved=0;strokeWidth=2;" edge="1" parent="1">
          <mxGeometry width="50" height="50" relative="1" as="geometry">
            <mxPoint x="524.72" y="385.96000000000004" as="sourcePoint" />
            <mxPoint x="536.8000000000002" y="365.59000000000003" as="targetPoint" />
          </mxGeometry>
        </mxCell>
        <mxCell id="AJbrOTF5VmKrxKlWtQ_G-40" value="" style="ellipse;whiteSpace=wrap;html=1;aspect=fixed;fillColor=#FF0000;" vertex="1" parent="1">
          <mxGeometry x="680" y="368.5" width="13" height="13" as="geometry" />
        </mxCell>
        <mxCell id="AJbrOTF5VmKrxKlWtQ_G-41" value="" style="whiteSpace=wrap;html=1;aspect=fixed;fillColor=#FF0000;" vertex="1" parent="1">
          <mxGeometry x="678" y="395" width="17" height="17" as="geometry" />
        </mxCell>
        <mxCell id="AJbrOTF5VmKrxKlWtQ_G-42" value="" style="endArrow=none;html=1;rounded=1;strokeColor=#FF0000;exitX=0.059;exitY=0.378;exitDx=0;exitDy=0;exitPerimeter=0;curved=0;strokeWidth=2;" edge="1" parent="1">
          <mxGeometry width="50" height="50" relative="1" as="geometry">
            <mxPoint x="696" y="427" as="sourcePoint" />
            <mxPoint x="677" y="427.2714285714285" as="targetPoint" />
          </mxGeometry>
        </mxCell>
        <mxCell id="AJbrOTF5VmKrxKlWtQ_G-43" value="village" style="text;html=1;strokeColor=none;fillColor=none;align=center;verticalAlign=middle;whiteSpace=wrap;rounded=0;" vertex="1" parent="1">
          <mxGeometry x="700" y="364" width="102" height="20" as="geometry" />
        </mxCell>
        <mxCell id="AJbrOTF5VmKrxKlWtQ_G-44" value="City" style="text;html=1;strokeColor=none;fillColor=none;align=center;verticalAlign=middle;whiteSpace=wrap;rounded=0;" vertex="1" parent="1">
          <mxGeometry x="700" y="390" width="102" height="20" as="geometry" />
        </mxCell>
        <mxCell id="AJbrOTF5VmKrxKlWtQ_G-45" value="road" style="text;html=1;strokeColor=none;fillColor=none;align=center;verticalAlign=middle;whiteSpace=wrap;rounded=0;" vertex="1" parent="1">
          <mxGeometry x="700" y="416" width="102" height="20" as="geometry" />
        </mxCell>
        <mxCell id="AJbrOTF5VmKrxKlWtQ_G-71" value="&lt;div style=&quot;font-size: 13px;&quot;&gt;&lt;font style=&quot;font-size: 13px;&quot;&gt;main_hex_node&lt;/font&gt;&lt;/div&gt;" style="text;html=1;strokeColor=none;fillColor=none;align=center;verticalAlign=middle;whiteSpace=wrap;rounded=0;fontSize=13;" vertex="1" parent="1">
          <mxGeometry x="184" y="373.5" width="84" height="22.75" as="geometry" />
        </mxCell>
        <mxCell id="AJbrOTF5VmKrxKlWtQ_G-73" value="" style="group" vertex="1" connectable="0" parent="1">
          <mxGeometry x="140" y="164" width="229" height="196" as="geometry" />
        </mxCell>
        <mxCell id="AJbrOTF5VmKrxKlWtQ_G-47" value="" style="rounded=1;whiteSpace=wrap;html=1;" vertex="1" parent="AJbrOTF5VmKrxKlWtQ_G-73">
          <mxGeometry width="229" height="196" as="geometry" />
        </mxCell>
        <mxCell id="AJbrOTF5VmKrxKlWtQ_G-48" value="" style="ellipse;whiteSpace=wrap;html=1;aspect=fixed;fillColor=#FF33FF;" vertex="1" parent="AJbrOTF5VmKrxKlWtQ_G-73">
          <mxGeometry x="105.1910569105691" y="85" width="18.617886178861788" height="18.617886178861788" as="geometry" />
        </mxCell>
        <mxCell id="AJbrOTF5VmKrxKlWtQ_G-49" value="" style="ellipse;whiteSpace=wrap;html=1;aspect=fixed;" vertex="1" parent="AJbrOTF5VmKrxKlWtQ_G-73">
          <mxGeometry x="162.44105691056913" y="6" width="18.617886178861788" height="18.617886178861788" as="geometry" />
        </mxCell>
        <mxCell id="AJbrOTF5VmKrxKlWtQ_G-50" value="" style="ellipse;whiteSpace=wrap;html=1;aspect=fixed;" vertex="1" parent="AJbrOTF5VmKrxKlWtQ_G-73">
          <mxGeometry x="47.94105691056911" y="6" width="18.617886178861788" height="18.617886178861788" as="geometry" />
        </mxCell>
        <mxCell id="AJbrOTF5VmKrxKlWtQ_G-51" value="" style="ellipse;whiteSpace=wrap;html=1;aspect=fixed;fillColor=#FF5B42;" vertex="1" parent="AJbrOTF5VmKrxKlWtQ_G-73">
          <mxGeometry x="203.8658536585366" y="85" width="18.617886178861788" height="18.617886178861788" as="geometry" />
        </mxCell>
        <mxCell id="AJbrOTF5VmKrxKlWtQ_G-52" value="" style="ellipse;whiteSpace=wrap;html=1;aspect=fixed;" vertex="1" parent="AJbrOTF5VmKrxKlWtQ_G-73">
          <mxGeometry x="6.516260162601626" y="85" width="18.617886178861788" height="18.617886178861788" as="geometry" />
        </mxCell>
        <mxCell id="AJbrOTF5VmKrxKlWtQ_G-54" value="" style="ellipse;whiteSpace=wrap;html=1;aspect=fixed;fillColor=#554FFF;" vertex="1" parent="AJbrOTF5VmKrxKlWtQ_G-73">
          <mxGeometry x="162.44105691056913" y="165" width="18.617886178861788" height="18.617886178861788" as="geometry" />
        </mxCell>
        <mxCell id="AJbrOTF5VmKrxKlWtQ_G-55" value="" style="ellipse;whiteSpace=wrap;html=1;aspect=fixed;" vertex="1" parent="AJbrOTF5VmKrxKlWtQ_G-73">
          <mxGeometry x="47.94105691056911" y="165" width="18.617886178861788" height="18.617886178861788" as="geometry" />
        </mxCell>
        <mxCell id="AJbrOTF5VmKrxKlWtQ_G-59" value="" style="endArrow=none;html=1;rounded=0;entryX=0;entryY=0.5;entryDx=0;entryDy=0;exitX=1;exitY=0.5;exitDx=0;exitDy=0;" edge="1" parent="AJbrOTF5VmKrxKlWtQ_G-73" source="AJbrOTF5VmKrxKlWtQ_G-50" target="AJbrOTF5VmKrxKlWtQ_G-49">
          <mxGeometry width="50" height="50" relative="1" as="geometry">
            <mxPoint x="94.95121951219512" y="61" as="sourcePoint" />
            <mxPoint x="141.4959349593496" y="11" as="targetPoint" />
          </mxGeometry>
        </mxCell>
        <mxCell id="AJbrOTF5VmKrxKlWtQ_G-60" value="" style="endArrow=none;html=1;rounded=0;entryX=0;entryY=0.5;entryDx=0;entryDy=0;exitX=1;exitY=0.5;exitDx=0;exitDy=0;" edge="1" parent="AJbrOTF5VmKrxKlWtQ_G-73">
          <mxGeometry width="50" height="50" relative="1" as="geometry">
            <mxPoint x="66.5589430894309" y="175" as="sourcePoint" />
            <mxPoint x="162.44105691056913" y="175" as="targetPoint" />
          </mxGeometry>
        </mxCell>
        <mxCell id="AJbrOTF5VmKrxKlWtQ_G-61" value="" style="endArrow=none;html=1;rounded=0;entryX=0.283;entryY=0.05;entryDx=0;entryDy=0;exitX=0.758;exitY=0.9;exitDx=0;exitDy=0;entryPerimeter=0;exitPerimeter=0;" edge="1" parent="AJbrOTF5VmKrxKlWtQ_G-73" source="AJbrOTF5VmKrxKlWtQ_G-49" target="AJbrOTF5VmKrxKlWtQ_G-51">
          <mxGeometry width="50" height="50" relative="1" as="geometry">
            <mxPoint x="118.22357723577237" y="48" as="sourcePoint" />
            <mxPoint x="214.10569105691056" y="48" as="targetPoint" />
          </mxGeometry>
        </mxCell>
        <mxCell id="AJbrOTF5VmKrxKlWtQ_G-62" value="" style="endArrow=none;html=1;rounded=0;entryX=0.283;entryY=0.05;entryDx=0;entryDy=0;exitX=0.758;exitY=0.9;exitDx=0;exitDy=0;entryPerimeter=0;exitPerimeter=0;" edge="1" parent="AJbrOTF5VmKrxKlWtQ_G-73">
          <mxGeometry width="50" height="50" relative="1" as="geometry">
            <mxPoint x="19.54878048780488" y="104.5" as="sourcePoint" />
            <mxPoint x="52.13008130081301" y="166.5" as="targetPoint" />
          </mxGeometry>
        </mxCell>
        <mxCell id="AJbrOTF5VmKrxKlWtQ_G-63" value="" style="endArrow=none;html=1;rounded=0;entryX=0.283;entryY=0.05;entryDx=0;entryDy=0;exitX=0.758;exitY=0.9;exitDx=0;exitDy=0;entryPerimeter=0;exitPerimeter=0;strokeColor=#00FF11;strokeWidth=2;" edge="1" parent="AJbrOTF5VmKrxKlWtQ_G-73">
          <mxGeometry width="50" height="50" relative="1" as="geometry">
            <mxPoint x="210.3821138211382" y="105" as="sourcePoint" />
            <mxPoint x="177.8008130081301" y="167" as="targetPoint" />
          </mxGeometry>
        </mxCell>
        <mxCell id="AJbrOTF5VmKrxKlWtQ_G-64" value="" style="endArrow=none;html=1;rounded=0;entryX=0.283;entryY=0.05;entryDx=0;entryDy=0;exitX=0.758;exitY=0.9;exitDx=0;exitDy=0;entryPerimeter=0;exitPerimeter=0;" edge="1" parent="AJbrOTF5VmKrxKlWtQ_G-73">
          <mxGeometry width="50" height="50" relative="1" as="geometry">
            <mxPoint x="51.19918699186992" y="23" as="sourcePoint" />
            <mxPoint x="18.617886178861788" y="85" as="targetPoint" />
          </mxGeometry>
        </mxCell>
        <mxCell id="AJbrOTF5VmKrxKlWtQ_G-65" value="" style="endArrow=none;html=1;rounded=0;entryX=0.781;entryY=0.086;entryDx=0;entryDy=0;entryPerimeter=0;" edge="1" parent="AJbrOTF5VmKrxKlWtQ_G-73" target="AJbrOTF5VmKrxKlWtQ_G-48">
          <mxGeometry width="50" height="50" relative="1" as="geometry">
            <mxPoint x="164.76829268292684" y="23" as="sourcePoint" />
            <mxPoint x="121.01626016260163" y="88" as="targetPoint" />
          </mxGeometry>
        </mxCell>
        <mxCell id="AJbrOTF5VmKrxKlWtQ_G-66" value="" style="endArrow=none;html=1;rounded=0;entryX=0.763;entryY=0.121;entryDx=0;entryDy=0;entryPerimeter=0;exitX=0;exitY=1;exitDx=0;exitDy=0;" edge="1" parent="AJbrOTF5VmKrxKlWtQ_G-73" source="AJbrOTF5VmKrxKlWtQ_G-48" target="AJbrOTF5VmKrxKlWtQ_G-55">
          <mxGeometry width="50" height="50" relative="1" as="geometry">
            <mxPoint x="107.98373983739837" y="101.5" as="sourcePoint" />
            <mxPoint x="64.23170731707317" y="166.5" as="targetPoint" />
          </mxGeometry>
        </mxCell>
        <mxCell id="AJbrOTF5VmKrxKlWtQ_G-67" value="" style="endArrow=none;html=1;rounded=0;entryX=0.241;entryY=0.063;entryDx=0;entryDy=0;entryPerimeter=0;exitX=0.882;exitY=0.832;exitDx=0;exitDy=0;exitPerimeter=0;" edge="1" parent="AJbrOTF5VmKrxKlWtQ_G-73" source="AJbrOTF5VmKrxKlWtQ_G-48" target="AJbrOTF5VmKrxKlWtQ_G-54">
          <mxGeometry width="50" height="50" relative="1" as="geometry">
            <mxPoint x="121.01626016260184" y="102.5" as="sourcePoint" />
            <mxPoint x="165.69918699187014" y="166.5" as="targetPoint" />
          </mxGeometry>
        </mxCell>
        <mxCell id="AJbrOTF5VmKrxKlWtQ_G-68" value="" style="endArrow=none;html=1;rounded=0;entryX=0.241;entryY=0.063;entryDx=0;entryDy=0;entryPerimeter=0;exitX=0.882;exitY=0.832;exitDx=0;exitDy=0;exitPerimeter=0;" edge="1" parent="AJbrOTF5VmKrxKlWtQ_G-73">
          <mxGeometry width="50" height="50" relative="1" as="geometry">
            <mxPoint x="63.300813008130085" y="23" as="sourcePoint" />
            <mxPoint x="107.98373983739837" y="87" as="targetPoint" />
          </mxGeometry>
        </mxCell>
        <mxCell id="AJbrOTF5VmKrxKlWtQ_G-69" value="" style="endArrow=none;html=1;rounded=0;entryX=0;entryY=0.5;entryDx=0;entryDy=0;exitX=1;exitY=0.5;exitDx=0;exitDy=0;" edge="1" parent="AJbrOTF5VmKrxKlWtQ_G-73" source="AJbrOTF5VmKrxKlWtQ_G-48" target="AJbrOTF5VmKrxKlWtQ_G-51">
          <mxGeometry width="50" height="50" relative="1" as="geometry">
            <mxPoint x="102.39837398373984" y="108" as="sourcePoint" />
            <mxPoint x="148.9430894308943" y="58" as="targetPoint" />
          </mxGeometry>
        </mxCell>
        <mxCell id="AJbrOTF5VmKrxKlWtQ_G-70" value="" style="endArrow=none;html=1;rounded=0;entryX=0;entryY=0.5;entryDx=0;entryDy=0;exitX=1;exitY=0.5;exitDx=0;exitDy=0;" edge="1" parent="AJbrOTF5VmKrxKlWtQ_G-73">
          <mxGeometry width="50" height="50" relative="1" as="geometry">
            <mxPoint x="25.134146341463413" y="94.88" as="sourcePoint" />
            <mxPoint x="105.1910569105691" y="94.88" as="targetPoint" />
          </mxGeometry>
        </mxCell>
        <mxCell id="AJbrOTF5VmKrxKlWtQ_G-74" value="" style="endArrow=none;dashed=1;html=1;rounded=0;entryX=0.978;entryY=0.058;entryDx=0;entryDy=0;entryPerimeter=0;exitX=0;exitY=0.5;exitDx=0;exitDy=0;" edge="1" parent="1" source="AJbrOTF5VmKrxKlWtQ_G-7" target="AJbrOTF5VmKrxKlWtQ_G-47">
          <mxGeometry width="50" height="50" relative="1" as="geometry">
            <mxPoint x="234" y="328" as="sourcePoint" />
            <mxPoint x="284" y="278" as="targetPoint" />
          </mxGeometry>
        </mxCell>
        <mxCell id="AJbrOTF5VmKrxKlWtQ_G-75" value="" style="endArrow=none;dashed=1;html=1;rounded=0;entryX=0.905;entryY=0.995;entryDx=0;entryDy=0;entryPerimeter=0;exitX=0.248;exitY=0.998;exitDx=0;exitDy=0;exitPerimeter=0;" edge="1" parent="1" source="AJbrOTF5VmKrxKlWtQ_G-3" target="AJbrOTF5VmKrxKlWtQ_G-47">
          <mxGeometry width="50" height="50" relative="1" as="geometry">
            <mxPoint x="464" y="426.5" as="sourcePoint" />
            <mxPoint x="308" y="276.5" as="targetPoint" />
          </mxGeometry>
        </mxCell>
        <mxCell id="AJbrOTF5VmKrxKlWtQ_G-78" value="" style="ellipse;whiteSpace=wrap;html=1;aspect=fixed;fillColor=#FF33FF;" vertex="1" parent="1">
          <mxGeometry x="153.0010569105691" y="376.94" width="18.617886178861788" height="18.617886178861788" as="geometry" />
        </mxCell>
        <mxCell id="AJbrOTF5VmKrxKlWtQ_G-79" value="" style="ellipse;whiteSpace=wrap;html=1;aspect=fixed;fillColor=#554FFF;" vertex="1" parent="1">
          <mxGeometry x="153.00105691056916" y="411.38" width="18.617886178861788" height="18.617886178861788" as="geometry" />
        </mxCell>
        <mxCell id="AJbrOTF5VmKrxKlWtQ_G-80" value="" style="ellipse;whiteSpace=wrap;html=1;aspect=fixed;fillColor=#FF5B42;" vertex="1" parent="1">
          <mxGeometry x="153.00585365853658" y="443.5" width="18.617886178861788" height="18.617886178861788" as="geometry" />
        </mxCell>
        <mxCell id="AJbrOTF5VmKrxKlWtQ_G-83" value="" style="endArrow=none;html=1;rounded=0;strokeColor=#00FF11;strokeWidth=2;" edge="1" parent="1">
          <mxGeometry width="50" height="50" relative="1" as="geometry">
            <mxPoint x="175.31" y="479" as="sourcePoint" />
            <mxPoint x="149.31" y="479" as="targetPoint" />
          </mxGeometry>
        </mxCell>
        <mxCell id="AJbrOTF5VmKrxKlWtQ_G-84" value="city_node" style="text;html=1;strokeColor=none;fillColor=none;align=center;verticalAlign=middle;whiteSpace=wrap;rounded=0;fontSize=13;" vertex="1" parent="1">
          <mxGeometry x="184" y="407.94" width="84" height="22.75" as="geometry" />
        </mxCell>
        <mxCell id="AJbrOTF5VmKrxKlWtQ_G-85" value="village_node" style="text;html=1;strokeColor=none;fillColor=none;align=center;verticalAlign=middle;whiteSpace=wrap;rounded=0;fontSize=13;" vertex="1" parent="1">
          <mxGeometry x="184" y="440.06" width="84" height="22.75" as="geometry" />
        </mxCell>
        <mxCell id="AJbrOTF5VmKrxKlWtQ_G-86" value="&lt;div style=&quot;font-size: 13px;&quot;&gt;road_edge&lt;br style=&quot;font-size: 13px;&quot;&gt;&lt;/div&gt;" style="text;html=1;strokeColor=none;fillColor=none;align=center;verticalAlign=middle;whiteSpace=wrap;rounded=0;fontSize=13;" vertex="1" parent="1">
          <mxGeometry x="184" y="465.63" width="84" height="22.75" as="geometry" />
        </mxCell>
      </root>
    </mxGraphModel>
  </diagram>
</mxfile>
